<svg xmlns="http://www.w3.org/2000/svg" width="512" height="512" viewBox="0 0 135.467 135.467"><defs><path id="a" d="M66.883 44.078h133.793v161.851H66.883z"/></defs><rect style="fill:#1a1a1a;fill-opacity:1;stroke:#15847d;stroke-width:0;stroke-linejoin:round;stroke-opacity:0" width="133.994" height="133.994" x=".736" y=".736" ry="49.888"/><path d="M27.845.638C16.352 3.196 7.68 10.137 3.03 20.366-.105 27.412-.105 27.203.052 69.01l.105 38.099 1.41 4.175c2.403 6.994 6.217 12.474 11.86 16.91 3.97 3.132 7.731 4.854 14.21 6.68.679.21 18.076.47 38.66.523 41.22.208 41.95.156 49.004-3.027 10.135-4.593 17.971-14.562 19.8-25.261.209-1.148.366-19.363.366-40.448V28.3l-1.41-4.176c-3.762-11.012-11.651-18.893-22.622-22.599l-4.18-1.409L69.118.012C38.712-.04 30.353.064 27.845.638Zm82.336 13.883c4.545 2.192 8.045 5.428 10.187 9.499 2.195 4.28 2.404 5.271 2.612 15.135l.21 9.29-7.21-.052c-3.918-.052-9.195-.052-11.65 0h-4.441l-3.082 6.106C89.23 69.791 85.052 78.56 85.052 79.186c0 .365-.105.574-.314.417-.156-.156-.26-7.254-.209-15.761V48.393h-2.455c-9.978-.104-16.98 0-17.293.209-.679.417-.47 65.552.262 65.97.313.208 4.806.312 9.978.208l9.456-.156v-13.936c0-7.672 0-14.978.052-16.283v-2.349l1.777 3.915c.94 2.14 2.925 6.158 4.388 8.872a469.694 469.694 0 0 1 5.433 10.438c1.516 3.027 2.874 5.585 3.03 5.741.157.157.68.94 1.15 1.827l.888 1.566 8.411.26 8.464.262-1.254 1.304c-1.62 1.827-5.904 4.698-6.896 4.698-.418 0-.888.208-1.045.47-.784 1.252-8.464 1.513-42.892 1.409-22.778-.105-36.622-.366-37.615-.679-3.605-1.2-10.188-5.428-10.188-6.472 0-.104 2.404-.208 5.33-.208 6.164 0 9.037-.366 12.694-1.618 3.292-1.096 7.68-3.967 9.456-6.107.732-.94 1.672-2.087 2.09-2.61.418-.469.732-.99.732-1.147 0-.157.418-1.253.992-2.506 1.41-3.183 2.09-6.054 2.403-9.812.314-4.175.418-42.744.105-43.057-.314-.313-19.278-.313-19.591.052-.157.157-.314 9.499-.366 20.72-.052 13.36-.314 21.137-.68 22.285-2.037 6.211-7.888 8.455-15.098 5.794-1.828-.627-3.343-1.566-3.5-2.036-.104-.47-.209-14.979-.209-32.254.052-23.956.21-31.993.732-33.924.888-3.445 2.977-7.36 5.015-9.551 1.776-1.879 5.329-4.697 5.903-4.697.21 0 1.098-.366 1.986-.783.94-.418 2.612-.94 3.761-1.2 1.15-.262 18.808-.418 39.183-.418l37.092.052zm12.8 62.682c-.105 25.782-.314 30.688-1.307 30.688-.26 0-1.097-1.2-1.933-2.662-.835-1.461-1.724-3.027-2.037-3.549-.261-.47-1.202-2.035-2.09-3.444-1.776-2.975-1.985-3.393-6.269-10.647-1.724-2.923-3.448-5.846-3.866-6.472-.68-1.096-.209-1.983 6.112-12.63 3.762-6.316 7.001-11.743 7.262-12.004.68-.888 2.142-3.497 3.03-5.376.418-.887.889-1.67.993-1.67.105 0 .157 12.526.105 27.766z" style="fill:#666;fill-opacity:1;stroke:none;stroke-width:.0522172"/><text xml:space="preserve" style="font-style:normal;font-weight:400;font-size:47.625px;line-height:1.25;font-family:sans-serif;letter-spacing:-2.53383px;white-space:pre;shape-inside:url(#a);fill:#0c0;fill-opacity:1;stroke:none" transform="matrix(1.04064 1.04063 -1.04064 1.04063 20.57 -125.748)"><tspan x="66.883" y="86.977"><tspan style="font-style:normal;font-variant:normal;font-weight:900;font-stretch:normal;font-size:47.625px;font-family:'Segoe UI';-inkscape-font-specification:'Segoe UI Heavy';fill:#0c0;fill-opacity:1">AOC</tspan></tspan></text></svg>